<svg width="692" height="692" viewBox="0 0 692 692" fill="none" xmlns="http://www.w3.org/2000/svg">
<rect x="253.29" width="506.579" height="506.579" rx="90" transform="rotate(30 253.29 0)" fill="#A5DE9A"/>
<g clip-path="url(#clip0_22_416)">
<path d="M342.836 178.469C354.095 178.469 363.223 169.347 363.223 158.095C363.223 146.843 354.095 137.721 342.836 137.721C331.577 137.721 322.45 146.843 322.45 158.095C322.45 169.347 331.577 178.469 342.836 178.469Z" fill="#47AE33"/>
<path d="M388.462 148.448C387.887 146.564 386.774 144.889 385.258 143.63C383.743 142.37 381.892 141.581 379.934 141.359C379.888 141.355 379.842 141.355 379.796 141.359C379.742 141.342 379.685 141.329 379.628 141.321C372.803 140.436 365.213 142.588 360.106 147.273C358.209 148.985 356.693 151.074 355.654 153.408C354.707 152.115 353.459 151.073 352.019 150.371C350.578 149.669 348.988 149.328 347.385 149.379C345.319 149.515 343.345 150.285 341.733 151.584C340.121 152.883 338.949 154.647 338.376 156.635C338.313 156.878 338.33 157.135 338.425 157.367C338.52 157.6 338.688 157.795 338.903 157.925C339.517 158.45 340.247 158.821 341.033 159.008C342.72 159.367 344.423 159.695 346.126 159.993C349.455 160.573 352.801 161.043 356.166 161.404C358.388 161.641 360.615 161.829 362.847 161.969C367.458 162.259 372.093 162.328 376.712 162.183C379.002 162.106 381.201 162.03 383.293 161.023C384.818 160.274 386.12 159.14 387.073 157.734C387.969 156.382 388.558 154.849 388.798 153.245C389.038 151.641 388.924 150.003 388.462 148.448Z" fill="#E6E6E6"/>
<path d="M346.523 178.13C346.484 177.276 346.341 176.431 346.095 175.612C345.518 173.728 344.402 172.054 342.886 170.795C341.37 169.535 339.518 168.746 337.559 168.523C337.516 168.52 337.473 168.52 337.43 168.523C337.372 168.507 337.313 168.494 337.254 168.485C333.476 168.023 329.643 168.417 326.038 169.637C320.495 171.492 315.632 175.231 313.288 180.572C312.34 179.279 311.091 178.236 309.648 177.534C308.206 176.832 306.614 176.492 305.011 176.543C302.945 176.68 300.971 177.45 299.359 178.748C297.746 180.047 296.574 181.811 296.002 183.8C295.942 184.043 295.961 184.298 296.056 184.53C296.15 184.761 296.316 184.957 296.529 185.089C297.144 185.613 297.873 185.984 298.659 186.173C300.354 186.531 302.049 186.859 303.759 187.157C307.088 187.737 310.432 188.207 313.791 188.569C320.617 189.301 327.484 189.561 334.345 189.347C336.628 189.271 338.835 189.194 340.927 188.187C342.449 187.438 343.749 186.304 344.698 184.898C346.037 182.905 346.678 180.526 346.523 178.13Z" fill="#E6E6E6"/>
<path d="M612.033 425.347C612.326 439.239 610.407 453.089 606.35 466.378C606.208 466.861 606.037 467.344 605.867 467.827H522.221C523.416 461.942 525.315 456.222 527.875 450.789C534.836 436.024 546.201 423.388 557.424 410.838C572.88 393.545 587.967 376.394 590.354 353.905C596.48 363.239 601.37 373.328 604.901 383.919C600.578 385.519 596.611 387.95 593.224 391.074C592.286 391.955 591.291 393.232 591.775 394.453C592.229 395.476 593.479 395.817 594.587 396.044C597.258 396.555 599.929 397.066 602.6 397.549C604.702 397.974 606.833 398.372 608.964 398.77C610.837 407.51 611.865 416.41 612.033 425.347Z" fill="#F2F2F2"/>
<path d="M682.297 416.148C668.886 424.297 660.362 436.905 653.401 451.017C647.344 452.397 641.751 455.333 637.178 459.536C636.211 460.416 635.217 461.694 635.729 462.915C636.155 463.937 637.433 464.278 638.541 464.505C641.184 465.016 643.883 465.527 646.525 466.01C646.27 466.606 646.014 467.231 645.758 467.827H557.111C561.135 462.403 565.592 457.313 570.437 452.607C571.488 451.556 572.568 450.563 573.676 449.541C584.976 439.334 597.951 431.15 612.033 425.348C634.216 416.08 658.473 412.904 682.297 416.148Z" fill="#F2F2F2"/>
<path d="M571.885 467.827H492.955C492.524 461.51 492.562 455.17 493.069 448.859C496.223 409.872 517.447 372.732 549.468 350.243C545.376 364.809 547.479 379.291 551.741 393.829C551.144 394.028 550.547 394.198 550.008 394.426C545.685 396.026 541.718 398.457 538.33 401.581C537.392 402.461 536.398 403.739 536.881 404.96C537.307 405.982 538.586 406.323 539.694 406.55C542.365 407.061 545.035 407.572 547.678 408.055C549.809 408.481 551.94 408.879 554.07 409.305C555.065 409.475 556.059 409.674 557.054 409.872C557.196 410.213 557.281 410.526 557.423 410.838C562.424 424.61 567.879 438.495 570.436 452.607C571.069 456.149 571.505 459.722 571.743 463.312C571.828 464.817 571.885 466.322 571.885 467.827Z" fill="#F2F2F2"/>
<path d="M141.711 425.347C142.004 439.239 140.086 453.089 136.029 466.378C135.887 466.861 135.716 467.344 135.546 467.827H51.8994C53.0951 461.942 54.9935 456.222 57.5536 450.789C64.5146 436.024 75.8795 423.388 87.1025 410.838C102.559 393.545 117.646 376.394 120.033 353.905C126.159 363.239 131.049 373.328 134.58 383.919C130.257 385.519 126.29 387.95 122.902 391.074C121.965 391.955 120.97 393.232 121.453 394.453C121.908 395.476 123.158 395.817 124.266 396.044C126.937 396.555 129.608 397.066 132.278 397.549C134.381 397.974 136.512 398.372 138.643 398.77C140.516 407.51 141.543 416.41 141.711 425.347Z" fill="#F2F2F2"/>
<path d="M211.974 416.148C198.564 424.297 190.04 436.905 183.079 451.017C177.021 452.397 171.429 455.333 166.855 459.536C165.889 460.416 164.895 461.694 165.406 462.915C165.833 463.937 167.111 464.278 168.219 464.505C170.861 465.016 173.561 465.527 176.203 466.01C175.947 466.606 175.692 467.231 175.436 467.827H86.7891C90.8132 462.403 95.2695 457.313 100.115 452.607C101.166 451.556 102.245 450.563 103.354 449.541C114.654 439.334 127.629 431.15 141.71 425.348C163.893 416.08 188.151 412.904 211.974 416.148Z" fill="#F2F2F2"/>
<path d="M101.564 467.827H22.634C22.203 461.51 22.241 455.17 22.7478 448.859C25.9015 409.872 47.1255 372.732 79.1464 350.243C75.055 364.809 77.1575 379.291 81.4194 393.829C80.8228 394.028 80.2261 394.198 79.6863 394.426C75.3636 396.026 71.3965 398.457 68.0088 401.581C67.0711 402.461 66.0768 403.739 66.5597 404.96C66.9858 405.982 68.2644 406.323 69.3725 406.55C72.0432 407.061 74.7141 407.572 77.3564 408.055C79.4873 408.481 81.6183 408.879 83.7492 409.305C84.7436 409.475 85.7381 409.674 86.7325 409.872C86.8745 410.213 86.9598 410.526 87.1018 410.838C92.1025 424.61 97.5576 438.495 100.115 452.607C100.748 456.149 101.184 459.722 101.422 463.312C101.507 464.817 101.564 466.322 101.564 467.827Z" fill="#F2F2F2"/>
<path d="M395.408 434.709L465.934 440.966L466.689 441.035V140.289C466.437 140.113 466.186 139.938 465.934 139.762C451.235 129.487 435.336 121.047 418.588 114.627L414.985 164.302L414.656 168.849L411.091 218.111L409.991 233.266L395.538 432.954L395.408 434.709Z" fill="#E6E6E6"/>
<path d="M220.999 134.688C220.495 135.008 219.991 135.329 219.487 135.664V441.035L220.999 440.897L290.761 434.709L290.631 432.954L276.178 233.265L275.078 218.111L271.513 168.849L271.184 164.301L267.405 112.208C251.107 117.855 235.531 125.4 220.999 134.688Z" fill="#E6E6E6"/>
<path d="M219.487 135.665C218.472 136.321 217.456 136.992 216.456 137.671V445.201C216.456 452.885 221.014 459.325 227.107 460.966C228.103 461.235 229.13 461.371 230.161 461.37H456.771C457.8 461.371 458.824 461.235 459.817 460.966C462.082 460.338 464.134 459.109 465.757 457.41C468.852 454.104 470.543 449.728 470.475 445.201V143.02C469.223 142.097 467.964 141.181 466.689 140.289C466.437 140.113 466.185 139.938 465.933 139.762V445.201C465.934 446.191 465.816 447.177 465.581 448.139C464.505 452.679 460.955 456.006 456.771 456.006H230.161C225.107 456.006 220.999 451.16 220.999 445.201V134.688C220.495 135.008 219.991 135.329 219.487 135.665Z" fill="#E6E6E6"/>
<path d="M468.204 164.305H218.726V168.852H468.204V164.305Z" fill="#E6E6E6"/>
<path d="M391.797 106.303C390.285 105.929 388.773 105.578 387.246 105.25V228.718H391.797V106.303Z" fill="#E6E6E6"/>
<path d="M299.686 103.716C298.167 103.998 296.647 104.288 295.136 104.601V228.718H299.686V103.716Z" fill="#E6E6E6"/>
<path d="M169.813 453.411C169.812 456.021 170.313 458.606 171.287 461.026C171.661 461.965 172.108 462.873 172.623 463.743C173.289 464.877 174.061 465.945 174.929 466.932C176.847 469.117 179.21 470.867 181.859 472.066C184.508 473.265 187.383 473.884 190.291 473.884H489.06C494.49 473.884 499.699 471.728 503.539 467.89C507.379 464.052 509.537 458.847 509.537 453.419C509.537 447.991 507.379 442.786 503.539 438.948C499.699 435.11 494.49 432.954 489.06 432.954H190.291C184.863 432.959 179.659 435.116 175.82 438.951C171.981 442.786 169.821 447.987 169.813 453.411Z" fill="#E6E6E6"/>
<path d="M218.726 233.267L466.688 233.267V218.11L218.726 218.11V233.267Z" fill="#E6E6E6"/>
<path d="M353.323 221.9H332.091C332.091 219.689 332.97 217.569 334.534 216.005C336.098 214.442 338.22 213.564 340.432 213.564H344.982C346.077 213.564 347.162 213.779 348.174 214.198C349.186 214.617 350.106 215.231 350.88 216.005C351.655 216.779 352.269 217.698 352.688 218.71C353.107 219.721 353.323 220.805 353.323 221.9H353.323Z" fill="#E6E6E6"/>
<path d="M10.2861 465.101C16.9189 472.955 24.093 480.337 31.756 487.191H647.587C655.25 480.337 662.424 472.955 669.057 465.101H10.2861Z" fill="#3F3D56"/>
<path d="M313.162 391.231V469.488H368.02V391.231C368.021 390.668 367.841 390.119 367.508 389.666C367.174 389.213 366.703 388.879 366.165 388.713C365.911 388.629 365.646 388.588 365.379 388.59H315.811C315.464 388.59 315.12 388.658 314.799 388.79C314.477 388.922 314.185 389.117 313.939 389.362C313.693 389.607 313.498 389.898 313.365 390.219C313.231 390.54 313.162 390.883 313.162 391.231ZM334.571 418.12C334.585 416.578 335.209 415.103 336.305 414.017C337.402 412.932 338.883 412.323 340.427 412.323C341.971 412.323 343.452 412.932 344.549 414.017C345.645 415.103 346.269 416.578 346.283 418.12V427.201C346.275 428.748 345.655 430.229 344.557 431.32C343.46 432.411 341.975 433.023 340.427 433.023C338.879 433.023 337.394 432.411 336.297 431.32C335.199 430.229 334.579 428.748 334.571 427.201V418.12Z" fill="#2F2E41"/>
<path d="M312.994 466.986V474.532C312.995 474.923 313.151 475.298 313.427 475.575C313.703 475.852 314.077 476.009 314.468 476.013H366.715C367.106 476.011 367.481 475.854 367.757 475.576C368.033 475.299 368.188 474.924 368.188 474.532V466.986H312.994Z" fill="#3F3D56"/>
<path d="M226.863 273.325V416.213C226.865 418.034 227.589 419.779 228.878 421.067C230.166 422.355 231.913 423.079 233.735 423.08H445.609C447.431 423.079 449.178 422.355 450.466 421.067C451.754 419.779 452.479 418.034 452.48 416.213V273.325C452.476 271.506 451.75 269.762 450.462 268.477C449.174 267.191 447.429 266.468 445.609 266.465H233.735C231.914 266.468 230.169 267.191 228.881 268.477C227.593 269.762 226.868 271.506 226.863 273.325Z" fill="#3F3D56"/>
<path d="M231.834 275.103V414.45C231.836 415.423 232.223 416.356 232.911 417.044C233.6 417.732 234.533 418.119 235.506 418.12H443.845C444.819 418.119 445.752 417.732 446.44 417.044C447.129 416.356 447.516 415.423 447.518 414.45V275.103C447.518 274.129 447.131 273.195 446.442 272.505C445.754 271.816 444.82 271.427 443.845 271.425H235.506C234.532 271.427 233.598 271.816 232.909 272.505C232.221 273.195 231.834 274.129 231.834 275.103Z" fill="#47AE33"/>
<path d="M274.316 477.79C274.528 478.056 274.797 478.27 275.104 478.417C275.411 478.564 275.747 478.639 276.087 478.637H400.035C400.374 478.637 400.709 478.561 401.014 478.415C401.32 478.269 401.59 478.057 401.803 477.794C402.017 477.531 402.169 477.223 402.249 476.894C402.329 476.565 402.334 476.222 402.264 475.89L400.34 466.757C400.261 466.384 400.089 466.038 399.841 465.748C399.593 465.459 399.276 465.237 398.92 465.101C398.662 465 398.388 464.948 398.111 464.948H278.003C277.726 464.948 277.452 465 277.194 465.101C276.838 465.237 276.521 465.459 276.273 465.748C276.025 466.038 275.854 466.384 275.774 466.757L273.85 475.89C273.781 476.222 273.788 476.564 273.868 476.893C273.949 477.221 274.102 477.528 274.316 477.79Z" fill="#2F2E41"/>
<path d="M393.786 468.882H396.858C397.064 468.882 397.23 468.716 397.23 468.51V466.966C397.23 466.76 397.064 466.593 396.858 466.593H393.786C393.58 466.593 393.413 466.76 393.413 466.966V468.51C393.413 468.716 393.58 468.882 393.786 468.882Z" fill="#3F3D56"/>
<path d="M386.15 468.882H389.222C389.428 468.882 389.595 468.716 389.595 468.51V466.966C389.595 466.76 389.428 466.593 389.222 466.593H386.15C385.944 466.593 385.777 466.76 385.777 466.966V468.51C385.777 468.716 385.944 468.882 386.15 468.882Z" fill="#3F3D56"/>
<path d="M378.515 468.882H381.587C381.793 468.882 381.96 468.716 381.96 468.51V466.966C381.96 466.76 381.793 466.593 381.587 466.593H378.515C378.309 466.593 378.142 466.76 378.142 466.966V468.51C378.142 468.716 378.309 468.882 378.515 468.882Z" fill="#3F3D56"/>
<path d="M370.88 468.882H373.952C374.158 468.882 374.325 468.716 374.325 468.51V466.966C374.325 466.76 374.158 466.593 373.952 466.593H370.88C370.675 466.593 370.508 466.76 370.508 466.966V468.51C370.508 468.716 370.675 468.882 370.88 468.882Z" fill="#3F3D56"/>
<path d="M363.245 468.882H366.317C366.523 468.882 366.689 468.716 366.689 468.51V466.966C366.689 466.76 366.523 466.593 366.317 466.593H363.245C363.039 466.593 362.872 466.76 362.872 466.966V468.51C362.872 468.716 363.039 468.882 363.245 468.882Z" fill="#3F3D56"/>
<path d="M355.61 468.882H358.682C358.888 468.882 359.055 468.716 359.055 468.51V466.966C359.055 466.76 358.888 466.593 358.682 466.593H355.61C355.404 466.593 355.237 466.76 355.237 466.966V468.51C355.237 468.716 355.404 468.882 355.61 468.882Z" fill="#3F3D56"/>
<path d="M347.975 468.882H351.047C351.253 468.882 351.42 468.716 351.42 468.51V466.966C351.42 466.76 351.253 466.593 351.047 466.593H347.975C347.769 466.593 347.602 466.76 347.602 466.966V468.51C347.602 468.716 347.769 468.882 347.975 468.882Z" fill="#3F3D56"/>
<path d="M340.339 468.882H343.411C343.617 468.882 343.784 468.716 343.784 468.51V466.966C343.784 466.76 343.617 466.593 343.411 466.593H340.339C340.133 466.593 339.967 466.76 339.967 466.966V468.51C339.967 468.716 340.133 468.882 340.339 468.882Z" fill="#3F3D56"/>
<path d="M332.705 468.882H335.777C335.983 468.882 336.149 468.716 336.149 468.51V466.966C336.149 466.76 335.983 466.593 335.777 466.593H332.705C332.499 466.593 332.332 466.76 332.332 466.966V468.51C332.332 468.716 332.499 468.882 332.705 468.882Z" fill="#3F3D56"/>
<path d="M325.07 468.882H328.142C328.348 468.882 328.515 468.716 328.515 468.51V466.966C328.515 466.76 328.348 466.593 328.142 466.593H325.07C324.864 466.593 324.697 466.76 324.697 466.966V468.51C324.697 468.716 324.864 468.882 325.07 468.882Z" fill="#3F3D56"/>
<path d="M317.434 468.882H320.506C320.712 468.882 320.879 468.716 320.879 468.51V466.966C320.879 466.76 320.712 466.593 320.506 466.593H317.434C317.228 466.593 317.061 466.76 317.061 466.966V468.51C317.061 468.716 317.228 468.882 317.434 468.882Z" fill="#3F3D56"/>
<path d="M309.799 468.882H312.871C313.077 468.882 313.244 468.716 313.244 468.51V466.966C313.244 466.76 313.077 466.593 312.871 466.593H309.799C309.593 466.593 309.427 466.76 309.427 466.966V468.51C309.427 468.716 309.593 468.882 309.799 468.882Z" fill="#3F3D56"/>
<path d="M302.165 468.882H305.237C305.442 468.882 305.609 468.716 305.609 468.51V466.966C305.609 466.76 305.442 466.593 305.237 466.593H302.165C301.959 466.593 301.792 466.76 301.792 466.966V468.51C301.792 468.716 301.959 468.882 302.165 468.882Z" fill="#3F3D56"/>
<path d="M294.529 468.882H297.601C297.807 468.882 297.974 468.716 297.974 468.51V466.966C297.974 466.76 297.807 466.593 297.601 466.593H294.529C294.323 466.593 294.156 466.76 294.156 466.966V468.51C294.156 468.716 294.323 468.882 294.529 468.882Z" fill="#3F3D56"/>
<path d="M286.894 468.882H289.966C290.172 468.882 290.339 468.716 290.339 468.51V466.966C290.339 466.76 290.172 466.593 289.966 466.593H286.894C286.688 466.593 286.521 466.76 286.521 466.966V468.51C286.521 468.716 286.688 468.882 286.894 468.882Z" fill="#3F3D56"/>
<path d="M279.259 468.882H282.331C282.537 468.882 282.704 468.716 282.704 468.51V466.966C282.704 466.76 282.537 466.593 282.331 466.593H279.259C279.053 466.593 278.887 466.76 278.887 466.966V468.51C278.887 468.716 279.053 468.882 279.259 468.882Z" fill="#3F3D56"/>
<path d="M393.875 472.698H396.948C397.153 472.698 397.32 472.531 397.32 472.325V470.781C397.32 470.575 397.153 470.409 396.948 470.409H393.875C393.67 470.409 393.503 470.575 393.503 470.781V472.325C393.503 472.531 393.67 472.698 393.875 472.698Z" fill="#3F3D56"/>
<path d="M386.241 472.698H389.313C389.519 472.698 389.686 472.531 389.686 472.325V470.781C389.686 470.575 389.519 470.409 389.313 470.409H386.241C386.035 470.409 385.868 470.575 385.868 470.781V472.325C385.868 472.531 386.035 472.698 386.241 472.698Z" fill="#3F3D56"/>
<path d="M378.606 472.698H381.678C381.884 472.698 382.051 472.531 382.051 472.325V470.781C382.051 470.575 381.884 470.409 381.678 470.409H378.606C378.4 470.409 378.233 470.575 378.233 470.781V472.325C378.233 472.531 378.4 472.698 378.606 472.698Z" fill="#3F3D56"/>
<path d="M370.97 472.698H374.042C374.248 472.698 374.415 472.531 374.415 472.325V470.781C374.415 470.575 374.248 470.409 374.042 470.409H370.97C370.764 470.409 370.597 470.575 370.597 470.781V472.325C370.597 472.531 370.764 472.698 370.97 472.698Z" fill="#3F3D56"/>
<path d="M363.335 472.698H366.408C366.613 472.698 366.78 472.531 366.78 472.325V470.781C366.78 470.575 366.613 470.409 366.408 470.409H363.335C363.13 470.409 362.963 470.575 362.963 470.781V472.325C362.963 472.531 363.13 472.698 363.335 472.698Z" fill="#3F3D56"/>
<path d="M355.7 472.698H358.772C358.978 472.698 359.145 472.531 359.145 472.325V470.781C359.145 470.575 358.978 470.409 358.772 470.409H355.7C355.494 470.409 355.327 470.575 355.327 470.781V472.325C355.327 472.531 355.494 472.698 355.7 472.698Z" fill="#3F3D56"/>
<path d="M348.065 472.698H351.137C351.343 472.698 351.51 472.531 351.51 472.325V470.781C351.51 470.575 351.343 470.409 351.137 470.409H348.065C347.859 470.409 347.692 470.575 347.692 470.781V472.325C347.692 472.531 347.859 472.698 348.065 472.698Z" fill="#3F3D56"/>
<path d="M340.43 472.698H343.502C343.708 472.698 343.875 472.531 343.875 472.325V470.781C343.875 470.575 343.708 470.409 343.502 470.409H340.43C340.224 470.409 340.057 470.575 340.057 470.781V472.325C340.057 472.531 340.224 472.698 340.43 472.698Z" fill="#3F3D56"/>
<path d="M332.795 472.698H335.867C336.073 472.698 336.24 472.531 336.24 472.325V470.781C336.24 470.575 336.073 470.409 335.867 470.409H332.795C332.59 470.409 332.423 470.575 332.423 470.781V472.325C332.423 472.531 332.59 472.698 332.795 472.698Z" fill="#3F3D56"/>
<path d="M325.16 472.698H328.232C328.438 472.698 328.604 472.531 328.604 472.325V470.781C328.604 470.575 328.438 470.409 328.232 470.409H325.16C324.954 470.409 324.787 470.575 324.787 470.781V472.325C324.787 472.531 324.954 472.698 325.16 472.698Z" fill="#3F3D56"/>
<path d="M317.525 472.698H320.597C320.803 472.698 320.97 472.531 320.97 472.325V470.781C320.97 470.575 320.803 470.409 320.597 470.409H317.525C317.319 470.409 317.152 470.575 317.152 470.781V472.325C317.152 472.531 317.319 472.698 317.525 472.698Z" fill="#3F3D56"/>
<path d="M309.889 472.698H312.961C313.167 472.698 313.334 472.531 313.334 472.325V470.781C313.334 470.575 313.167 470.409 312.961 470.409H309.889C309.683 470.409 309.516 470.575 309.516 470.781V472.325C309.516 472.531 309.683 472.698 309.889 472.698Z" fill="#3F3D56"/>
<path d="M302.254 472.698H305.326C305.532 472.698 305.699 472.531 305.699 472.325V470.781C305.699 470.575 305.532 470.409 305.326 470.409H302.254C302.049 470.409 301.882 470.575 301.882 470.781V472.325C301.882 472.531 302.049 472.698 302.254 472.698Z" fill="#3F3D56"/>
<path d="M294.62 472.698H297.692C297.898 472.698 298.064 472.531 298.064 472.325V470.781C298.064 470.575 297.898 470.409 297.692 470.409H294.62C294.414 470.409 294.247 470.575 294.247 470.781V472.325C294.247 472.531 294.414 472.698 294.62 472.698Z" fill="#3F3D56"/>
<path d="M286.985 472.698H290.057C290.263 472.698 290.43 472.531 290.43 472.325V470.781C290.43 470.575 290.263 470.409 290.057 470.409H286.985C286.779 470.409 286.612 470.575 286.612 470.781V472.325C286.612 472.531 286.779 472.698 286.985 472.698Z" fill="#3F3D56"/>
<path d="M279.349 472.698H282.421C282.627 472.698 282.794 472.531 282.794 472.325V470.781C282.794 470.575 282.627 470.409 282.421 470.409H279.349C279.143 470.409 278.976 470.575 278.976 470.781V472.325C278.976 472.531 279.143 472.698 279.349 472.698Z" fill="#3F3D56"/>
<path d="M330.504 477.276H360.299C360.505 477.276 360.672 477.109 360.672 476.903V475.359C360.672 475.154 360.505 474.987 360.299 474.987H330.504C330.298 474.987 330.132 475.154 330.132 475.359V476.903C330.132 477.109 330.298 477.276 330.504 477.276Z" fill="#3F3D56"/>
<path d="M245.975 290.621H440.917C441.12 290.616 441.312 290.533 441.454 290.388C441.596 290.243 441.675 290.049 441.675 289.846C441.675 289.643 441.596 289.449 441.454 289.304C441.312 289.159 441.12 289.076 440.917 289.071H245.975C245.773 289.076 245.58 289.159 245.438 289.304C245.296 289.449 245.217 289.643 245.217 289.846C245.217 290.049 245.296 290.243 245.438 290.388C245.58 290.533 245.773 290.616 245.975 290.621Z" fill="#3F3D56"/>
<path d="M427.647 285.116C430.156 285.116 432.19 283.038 432.19 280.474C432.19 277.911 430.156 275.833 427.647 275.833C425.138 275.833 423.104 277.911 423.104 280.474C423.104 283.038 425.138 285.116 427.647 285.116Z" fill="#3F3D56"/>
<path d="M411.952 285.116C414.462 285.116 416.496 283.038 416.496 280.474C416.496 277.911 414.462 275.833 411.952 275.833C409.443 275.833 407.409 277.911 407.409 280.474C407.409 283.038 409.443 285.116 411.952 285.116Z" fill="#3F3D56"/>
<path d="M396.257 285.116C398.766 285.116 400.8 283.038 400.8 280.474C400.8 277.911 398.766 275.833 396.257 275.833C393.748 275.833 391.714 277.911 391.714 280.474C391.714 283.038 393.748 285.116 396.257 285.116Z" fill="#3F3D56"/>
<path d="M254.594 277.827C254.593 277.937 254.614 278.045 254.656 278.147C254.697 278.249 254.759 278.341 254.836 278.419C254.913 278.497 255.005 278.559 255.106 278.601C255.208 278.644 255.316 278.666 255.426 278.666H266.573C266.794 278.661 267.003 278.57 267.157 278.413C267.311 278.255 267.397 278.043 267.397 277.823C267.397 277.603 267.311 277.391 267.157 277.234C267.003 277.076 266.794 276.985 266.573 276.98H255.426C255.203 276.983 254.991 277.073 254.835 277.232C254.679 277.391 254.592 277.605 254.594 277.827Z" fill="#3F3D56"/>
<path d="M254.594 280.994C254.593 281.104 254.614 281.212 254.656 281.314C254.697 281.416 254.759 281.508 254.836 281.586C254.913 281.664 255.005 281.726 255.106 281.768C255.208 281.811 255.316 281.833 255.426 281.833H266.573C266.794 281.828 267.004 281.737 267.158 281.58C267.312 281.422 267.398 281.211 267.398 280.99C267.398 280.77 267.312 280.558 267.158 280.4C267.004 280.243 266.794 280.152 266.573 280.147H255.426C255.203 280.15 254.991 280.24 254.835 280.399C254.679 280.558 254.592 280.772 254.594 280.994Z" fill="#3F3D56"/>
<path d="M254.594 284.153C254.592 284.375 254.679 284.589 254.835 284.748C254.991 284.907 255.203 284.997 255.426 285H266.573C266.794 284.995 267.003 284.904 267.157 284.746C267.311 284.588 267.397 284.377 267.397 284.157C267.397 283.936 267.311 283.725 267.157 283.567C267.003 283.41 266.794 283.319 266.573 283.313H255.426C255.316 283.314 255.208 283.336 255.106 283.378C255.005 283.421 254.913 283.483 254.836 283.561C254.759 283.639 254.697 283.731 254.656 283.833C254.614 283.934 254.593 284.043 254.594 284.153Z" fill="#3F3D56"/>
<path d="M258.038 308.626H254.033C252.818 308.626 251.834 309.61 251.834 310.823C251.834 312.037 252.818 313.021 254.033 313.021H258.038C259.253 313.021 260.237 312.037 260.237 310.823C260.237 309.61 259.253 308.626 258.038 308.626Z" fill="#E6E6E6"/>
<path d="M303.849 308.626H299.843C298.629 308.626 297.645 309.61 297.645 310.823C297.645 312.037 298.629 313.021 299.843 313.021H303.849C305.063 313.021 306.048 312.037 306.048 310.823C306.048 309.61 305.063 308.626 303.849 308.626Z" fill="#E6E6E6"/>
<path d="M316.829 308.626H312.824C311.609 308.626 310.625 309.61 310.625 310.823C310.625 312.037 311.609 313.021 312.824 313.021H316.829C318.044 313.021 319.028 312.037 319.028 310.823C319.028 309.61 318.044 308.626 316.829 308.626Z" fill="#E6E6E6"/>
<path d="M291.389 308.26H266.494C265.279 308.26 264.295 309.244 264.295 310.457C264.295 311.671 265.279 312.655 266.494 312.655H291.389C292.603 312.655 293.587 311.671 293.587 310.457C293.587 309.244 292.603 308.26 291.389 308.26Z" fill="#E6E6E6"/>
<path d="M352.47 308.26H327.575C326.36 308.26 325.376 309.244 325.376 310.457C325.376 311.671 326.36 312.655 327.575 312.655H352.47C353.684 312.655 354.669 311.671 354.669 310.457C354.669 309.244 353.684 308.26 352.47 308.26Z" fill="#E6E6E6"/>
<path d="M270.255 318.546H266.25C265.035 318.546 264.051 319.53 264.051 320.743C264.051 321.957 265.035 322.941 266.25 322.941H270.255C271.47 322.941 272.454 321.957 272.454 320.743C272.454 319.53 271.47 318.546 270.255 318.546Z" fill="#E6E6E6"/>
<path d="M316.066 318.546H312.06C310.846 318.546 309.861 319.53 309.861 320.743C309.861 321.957 310.846 322.941 312.06 322.941H316.066C317.28 322.941 318.265 321.957 318.265 320.743C318.265 319.53 317.28 318.546 316.066 318.546Z" fill="#E6E6E6"/>
<path d="M329.045 318.546H325.04C323.825 318.546 322.841 319.53 322.841 320.743C322.841 321.957 323.825 322.941 325.04 322.941H329.045C330.26 322.941 331.244 321.957 331.244 320.743C331.244 319.53 330.26 318.546 329.045 318.546Z" fill="#E6E6E6"/>
<path d="M303.604 318.179H278.71C277.495 318.179 276.511 319.163 276.511 320.377C276.511 321.59 277.495 322.574 278.71 322.574H303.604C304.819 322.574 305.803 321.59 305.803 320.377C305.803 319.163 304.819 318.179 303.604 318.179Z" fill="#E6E6E6"/>
<path d="M364.685 318.179H339.791C338.576 318.179 337.592 319.163 337.592 320.377C337.592 321.59 338.576 322.574 339.791 322.574H364.685C365.9 322.574 366.884 321.59 366.884 320.377C366.884 319.163 365.9 318.179 364.685 318.179Z" fill="#E6E6E6"/>
<path d="M282.471 328.465H278.465C277.251 328.465 276.267 329.449 276.267 330.663C276.267 331.877 277.251 332.86 278.465 332.86H282.471C283.685 332.86 284.67 331.877 284.67 330.663C284.67 329.449 283.685 328.465 282.471 328.465Z" fill="#E6E6E6"/>
<path d="M328.282 328.465H324.276C323.062 328.465 322.077 329.449 322.077 330.663C322.077 331.877 323.062 332.86 324.276 332.86H328.282C329.496 332.86 330.48 331.877 330.48 330.663C330.48 329.449 329.496 328.465 328.282 328.465Z" fill="#E6E6E6"/>
<path d="M341.261 328.465H337.256C336.041 328.465 335.057 329.449 335.057 330.663C335.057 331.877 336.041 332.86 337.256 332.86H341.261C342.475 332.86 343.46 331.877 343.46 330.663C343.46 329.449 342.475 328.465 341.261 328.465Z" fill="#E6E6E6"/>
<path d="M315.821 328.099H290.926C289.712 328.099 288.728 329.083 288.728 330.297C288.728 331.51 289.712 332.494 290.926 332.494H315.821C317.036 332.494 318.02 331.51 318.02 330.297C318.02 329.083 317.036 328.099 315.821 328.099Z" fill="#E6E6E6"/>
<path d="M376.901 328.099H352.006C350.792 328.099 349.808 329.083 349.808 330.297C349.808 331.51 350.792 332.494 352.006 332.494H376.901C378.116 332.494 379.1 331.51 379.1 330.297C379.1 329.083 378.116 328.099 376.901 328.099Z" fill="#E6E6E6"/>
<path d="M294.687 338.385H290.681C289.467 338.385 288.482 339.369 288.482 340.582C288.482 341.796 289.467 342.78 290.681 342.78H294.687C295.901 342.78 296.886 341.796 296.886 340.582C296.886 339.369 295.901 338.385 294.687 338.385Z" fill="#E6E6E6"/>
<path d="M340.497 338.385H336.492C335.277 338.385 334.293 339.369 334.293 340.582C334.293 341.796 335.277 342.78 336.492 342.78H340.497C341.712 342.78 342.696 341.796 342.696 340.582C342.696 339.369 341.712 338.385 340.497 338.385Z" fill="#E6E6E6"/>
<path d="M353.478 338.385H349.472C348.258 338.385 347.273 339.369 347.273 340.582C347.273 341.796 348.258 342.78 349.472 342.78H353.478C354.692 342.78 355.677 341.796 355.677 340.582C355.677 339.369 354.692 338.385 353.478 338.385Z" fill="#E6E6E6"/>
<path d="M328.037 338.019H303.142C301.928 338.019 300.943 339.002 300.943 340.216C300.943 341.43 301.928 342.414 303.142 342.414H328.037C329.251 342.414 330.236 341.43 330.236 340.216C330.236 339.002 329.251 338.019 328.037 338.019Z" fill="#E6E6E6"/>
<path d="M303.849 377.829H299.843C298.629 377.829 297.645 378.813 297.645 380.027C297.645 381.24 298.629 382.224 299.843 382.224H303.849C305.063 382.224 306.048 381.24 306.048 380.027C306.048 378.813 305.063 377.829 303.849 377.829Z" fill="#E6E6E6"/>
<path d="M316.829 377.829H312.824C311.609 377.829 310.625 378.813 310.625 380.027C310.625 381.24 311.609 382.224 312.824 382.224H316.829C318.044 382.224 319.028 381.24 319.028 380.027C319.028 378.813 318.044 377.829 316.829 377.829Z" fill="#E6E6E6"/>
<path d="M352.47 378.196H327.575C326.36 378.196 325.376 379.18 325.376 380.393C325.376 381.607 326.36 382.591 327.575 382.591H352.47C353.684 382.591 354.669 381.607 354.669 380.393C354.669 379.18 353.684 378.196 352.47 378.196Z" fill="#E6E6E6"/>
<path d="M258.038 377.829H254.033C252.818 377.829 251.834 378.813 251.834 380.027C251.834 381.24 252.818 382.224 254.033 382.224H258.038C259.253 382.224 260.237 381.24 260.237 380.027C260.237 378.813 259.253 377.829 258.038 377.829Z" fill="#E6E6E6"/>
<path d="M291.389 378.196H266.494C265.279 378.196 264.295 379.18 264.295 380.393C264.295 381.607 265.279 382.591 266.494 382.591H291.389C292.603 382.591 293.587 381.607 293.587 380.393C293.587 379.18 292.603 378.196 291.389 378.196Z" fill="#E6E6E6"/>
<path d="M270.255 367.91H266.25C265.035 367.91 264.051 368.894 264.051 370.107C264.051 371.321 265.035 372.305 266.25 372.305H270.255C271.47 372.305 272.454 371.321 272.454 370.107C272.454 368.894 271.47 367.91 270.255 367.91Z" fill="#E6E6E6"/>
<path d="M316.066 367.91H312.06C310.846 367.91 309.861 368.894 309.861 370.107C309.861 371.321 310.846 372.305 312.06 372.305H316.066C317.28 372.305 318.265 371.321 318.265 370.107C318.265 368.894 317.28 367.91 316.066 367.91Z" fill="#E6E6E6"/>
<path d="M329.045 367.91H325.04C323.825 367.91 322.841 368.894 322.841 370.107C322.841 371.321 323.825 372.305 325.04 372.305H329.045C330.26 372.305 331.244 371.321 331.244 370.107C331.244 368.894 330.26 367.91 329.045 367.91Z" fill="#E6E6E6"/>
<path d="M303.604 368.276H278.71C277.495 368.276 276.511 369.26 276.511 370.473C276.511 371.687 277.495 372.671 278.71 372.671H303.604C304.819 372.671 305.803 371.687 305.803 370.473C305.803 369.26 304.819 368.276 303.604 368.276Z" fill="#E6E6E6"/>
<path d="M282.471 357.99H278.465C277.251 357.99 276.267 358.974 276.267 360.188C276.267 361.401 277.251 362.385 278.465 362.385H282.471C283.685 362.385 284.67 361.401 284.67 360.188C284.67 358.974 283.685 357.99 282.471 357.99Z" fill="#E6E6E6"/>
<path d="M328.282 357.99H324.276C323.062 357.99 322.077 358.974 322.077 360.188C322.077 361.401 323.062 362.385 324.276 362.385H328.282C329.496 362.385 330.48 361.401 330.48 360.188C330.48 358.974 329.496 357.99 328.282 357.99Z" fill="#E6E6E6"/>
<path d="M341.261 357.99H337.256C336.041 357.99 335.057 358.974 335.057 360.188C335.057 361.401 336.041 362.385 337.256 362.385H341.261C342.475 362.385 343.46 361.401 343.46 360.188C343.46 358.974 342.475 357.99 341.261 357.99Z" fill="#E6E6E6"/>
<path d="M315.821 358.356H290.926C289.712 358.356 288.728 359.34 288.728 360.554C288.728 361.768 289.712 362.752 290.926 362.752H315.821C317.036 362.752 318.02 361.768 318.02 360.554C318.02 359.34 317.036 358.356 315.821 358.356Z" fill="#E6E6E6"/>
<path d="M294.687 348.071H290.681C289.467 348.071 288.482 349.055 288.482 350.268C288.482 351.482 289.467 352.466 290.681 352.466H294.687C295.901 352.466 296.886 351.482 296.886 350.268C296.886 349.055 295.901 348.071 294.687 348.071Z" fill="#E6E6E6"/>
<path d="M340.497 348.071H336.492C335.277 348.071 334.293 349.055 334.293 350.268C334.293 351.482 335.277 352.466 336.492 352.466H340.497C341.712 352.466 342.696 351.482 342.696 350.268C342.696 349.055 341.712 348.071 340.497 348.071Z" fill="#E6E6E6"/>
<path d="M353.478 348.071H349.472C348.258 348.071 347.273 349.055 347.273 350.268C347.273 351.482 348.258 352.466 349.472 352.466H353.478C354.692 352.466 355.677 351.482 355.677 350.268C355.677 349.055 354.692 348.071 353.478 348.071Z" fill="#E6E6E6"/>
<path d="M328.037 348.437H303.142C301.928 348.437 300.943 349.421 300.943 350.635C300.943 351.848 301.928 352.832 303.142 352.832H328.037C329.251 352.832 330.236 351.848 330.236 350.635C330.236 349.421 329.251 348.437 328.037 348.437Z" fill="#E6E6E6"/>
<path d="M277.447 520.301C277.279 520.385 277.111 520.469 276.943 520.545C275.882 521.072 274.813 521.591 273.736 522.102C270.514 523.636 267.252 525.093 263.948 526.474C255.256 530.108 246.337 533.174 237.248 535.654C235.721 526.139 234.24 503.697 232.82 487.193C232.553 484.087 232.285 481.195 232.018 478.639C231.764 475.283 231.282 471.949 230.575 468.658C230.506 468.401 230.406 468.152 230.277 467.918C230.423 469.238 230.575 473.176 230.72 478.639C230.797 481.195 230.865 484.087 230.942 487.193C231.301 503.079 231.675 524.696 232.049 537.004C230.988 537.264 229.919 537.523 228.85 537.767C228.178 537.928 227.498 538.08 226.819 538.225C225.994 538.408 225.17 538.591 224.345 538.759C223.482 538.942 222.619 539.118 221.757 539.286C207.658 542.054 193.323 543.444 178.954 543.437C178 543.437 177.053 543.429 176.099 543.421C175.809 543.421 175.519 543.414 175.221 543.406C174.381 543.391 173.511 543.376 172.625 543.353C155.645 542.884 138.777 540.454 122.355 536.112L123.02 487.193L123.134 478.639L123.18 475.396C122.802 476.439 122.576 477.531 122.508 478.639C122.241 480.722 121.966 483.675 121.691 487.193C120.645 500.744 119.569 522.606 118.454 535.043C105.253 531.289 95.6021 527.863 83.5387 521.835C83.0729 521.606 82.5995 521.37 82.1338 521.133C82.2178 520.545 82.3094 519.958 82.3934 519.355C83.7601 509.863 82.1491 497.509 83.6608 487.193C84.8137 479.234 86.0048 471.589 87.2035 465.103C88.6542 457.297 90.1277 451.162 91.586 448.178C93.2657 444.737 94.9455 441.349 96.5718 438.106C97.2742 436.71 97.9639 435.339 98.6409 433.993C99.0073 433.268 99.3738 432.551 99.7327 431.849C101.367 428.652 102.909 425.699 104.321 423.082C105.314 421.243 106.23 419.579 107.07 418.122C108.055 416.405 108.925 414.986 109.643 413.91C114.944 405.879 122.832 399.9 131.999 396.963L132.228 396.902L132.449 396.993L132.701 397.108L147.253 391.789L153.751 376.155L187.124 374.102L192.514 378.2L195.271 380.298L198.21 382.534L203.616 386.646L205.15 387.12L207.433 387.822L223.047 392.614L223.207 392.545L223.436 392.606C231.778 395.274 239.08 400.475 244.326 407.485C244.845 408.157 245.326 408.851 245.792 409.553C247.059 411.43 248.77 414.398 250.785 418.122C251.618 419.656 252.496 421.319 253.419 423.082C253.977 424.142 258.787 439.144 263.467 454.466C267.842 468.811 272.102 483.439 272.66 487.193C272.759 487.887 272.866 488.589 272.965 489.284C273.599 493.625 274.225 497.997 274.828 502.263C275.721 508.589 276.592 514.693 277.424 520.149C277.432 520.202 277.439 520.248 277.447 520.301Z" fill="#47AE33"/>
<path opacity="0.2" d="M242.079 465.068L235.592 440.046L229.863 461.637L242.079 465.068Z" fill="black"/>
<path d="M22.3717 464.777C22.7081 465.756 23.3462 466.603 24.1943 467.197C25.0425 467.791 26.0572 468.101 27.0925 468.082L47.3193 467.562C48.3623 467.542 49.3707 467.184 50.1937 466.544C51.0168 465.903 51.6104 465.014 51.8857 464.008L54.748 433.42C55.7635 433.88 56.8691 434.107 57.9837 434.084C59.9395 434.035 61.7956 433.212 63.1438 431.795C64.4921 430.378 65.2219 428.484 65.1728 426.53C65.1237 424.575 64.2997 422.72 62.8821 421.373C61.4644 420.025 59.5693 419.296 57.6135 419.345C57.168 419.344 56.7236 419.39 56.2879 419.483C55.8141 418.971 55.2382 418.563 54.5972 418.287C53.9563 418.01 53.2646 417.871 52.5665 417.878L21.4531 418.681C21.195 418.691 20.9383 418.722 20.6857 418.776C20.0033 418.903 19.3562 419.175 18.7878 419.573C18.2193 419.971 17.7428 420.486 17.3903 421.084C17.0378 421.681 16.8174 422.347 16.744 423.037C16.6707 423.727 16.746 424.424 16.965 425.083L22.3717 464.777ZM55.335 431.343L57.3718 424.054C57.6035 423.212 57.6088 422.324 57.3873 421.479C57.4861 421.479 57.5733 421.432 57.6722 421.432C59.0687 421.403 60.4197 421.929 61.429 422.894C62.4382 423.859 63.0233 425.185 63.056 426.58C63.0887 427.976 62.5664 429.327 61.6034 430.339C60.6405 431.35 59.3156 431.938 57.9192 431.975C57.0164 432.003 56.1229 431.785 55.335 431.343Z" fill="#369C22"/>
<path d="M20.6855 418.776C21.3484 422.564 28.801 425.227 37.7621 424.764C46.0024 424.385 52.7402 421.493 53.9746 418.066C53.5178 417.931 53.0427 417.867 52.5664 417.878L21.453 418.681C21.1949 418.691 20.9381 418.722 20.6855 418.776Z" fill="#3F3D56"/>
<path d="M609.755 521.132C609.289 521.368 608.816 521.605 608.35 521.833C596.286 527.862 586.636 531.288 573.435 535.042C572.32 522.604 571.243 500.743 570.197 487.191C569.922 483.674 569.648 480.721 569.38 478.638C569.313 477.53 569.087 476.438 568.708 475.395L568.754 478.638L568.869 487.191L569.533 536.11C553.112 540.452 536.243 542.882 519.264 543.351C518.378 543.374 517.507 543.389 516.668 543.405C516.37 543.412 516.08 543.42 515.79 543.42C514.835 543.428 513.888 543.435 512.934 543.435C495.041 543.448 477.212 541.289 459.84 537.003C460.214 524.695 460.588 503.078 460.947 487.191C461.023 484.086 461.092 481.194 461.168 478.638C461.313 473.174 461.466 469.237 461.611 467.917C461.482 468.151 461.382 468.399 461.313 468.657C460.606 471.947 460.124 475.282 459.87 478.638C459.603 481.194 459.336 484.086 459.068 487.191C457.648 503.696 456.167 526.137 454.64 535.652C445.551 533.172 436.632 530.106 427.94 526.473C423.359 524.565 418.86 522.508 414.441 520.3C415.281 514.806 416.159 508.648 417.06 502.261C417.763 497.309 418.488 492.22 419.229 487.191C420.374 479.424 459.282 395.542 468.452 392.604L468.681 392.543L468.841 392.612L484.455 387.82L486.738 387.118L488.273 386.645L493.678 382.532L496.618 380.296L499.374 378.198L504.765 374.101L538.137 376.153L544.635 391.788L559.187 397.106L559.439 396.992L559.661 396.9L559.89 396.961C569.057 399.899 576.944 405.878 582.245 413.909C582.963 414.984 583.833 416.404 584.818 418.121C585.658 419.578 586.575 421.241 587.567 423.08C588.98 425.698 590.522 428.651 592.156 431.848C592.515 432.55 592.881 433.267 593.248 433.992C593.927 435.335 594.617 436.706 595.317 438.105C596.943 441.348 598.623 444.736 600.302 448.177C601.761 451.16 603.234 457.295 604.685 465.101C605.884 471.587 607.075 479.233 608.228 487.191C609.739 497.508 608.128 509.861 609.495 519.354C609.579 519.956 609.671 520.544 609.755 521.132Z" fill="#47AE33"/>
<path d="M511.877 368.488C533.313 368.488 550.691 351.121 550.691 329.698C550.691 308.274 533.313 290.907 511.877 290.907C490.44 290.907 473.062 308.274 473.062 329.698C473.062 351.121 490.44 368.488 511.877 368.488Z" fill="#FFB6B6"/>
<path opacity="0.2" d="M449.807 465.068L456.294 440.046L462.023 461.637L449.807 465.068Z" fill="black"/>
<path d="M622.444 448.764C620.123 480.721 622.528 494.791 609.716 521.139C598.059 526.841 585.917 531.494 573.434 535.042C572.136 535.408 570.836 535.764 569.533 536.11C553.111 540.452 536.243 542.882 519.263 543.351C518.377 543.374 517.507 543.39 516.667 543.405C516.369 543.412 516.079 543.42 515.789 543.42C514.835 543.428 513.888 543.435 512.934 543.435C495.04 543.449 477.211 541.289 459.839 537.003C458.098 536.576 456.365 536.125 454.64 535.652C445.551 533.172 436.632 530.106 427.94 526.473C423.359 524.565 418.859 522.508 414.441 520.3C413.441 519.796 412.441 519.293 411.456 518.774C406.394 509.877 403.515 499.057 403.454 486.054C406.959 463.651 614.702 429.444 622.444 448.764Z" fill="#2F2E41"/>
<path opacity="0.2" d="M622.438 454.237C622.557 452.258 622.69 450.215 622.844 448.087C615.102 428.766 407.359 462.974 403.854 485.377C403.864 487.431 403.952 489.424 404.1 491.37C412.587 469.258 609.945 436.747 622.438 454.237Z" fill="black"/>
<path d="M398.288 450.271L415.34 441.751L401.13 403.407L397.385 384.07C396.898 381.558 395.76 379.217 394.085 377.282C392.41 375.347 390.256 373.885 387.838 373.043C385.42 372.2 382.824 372.007 380.308 372.481C377.792 372.956 375.445 374.082 373.5 375.747C370.62 378.215 368.811 381.705 368.456 385.48C368.101 389.255 369.227 393.021 371.597 395.982L385.499 413.348L398.288 450.271Z" fill="#FFB6B6"/>
<path d="M415.34 434.65L392.604 446.011L409.859 500.042C411.098 503.921 413.319 507.416 416.307 510.185C419.295 512.955 422.948 514.906 426.912 515.849C431.8 517.012 436.932 516.589 441.564 514.641C446.195 512.694 450.086 509.322 452.671 505.016L498.424 426.641C501.667 421.24 502.667 414.787 501.213 408.658C499.758 402.53 495.964 397.214 490.64 393.844C487.776 392.031 484.563 390.842 481.209 390.353C477.855 389.863 474.436 390.085 471.174 391.004C467.911 391.923 464.879 393.518 462.274 395.685C459.67 397.853 457.551 400.544 456.056 403.584L428.13 463.053L415.34 434.65Z" fill="#47AE33"/>
<path d="M170.247 365.811C193.833 365.811 212.954 346.703 212.954 323.131C212.954 299.559 193.833 280.45 170.247 280.45C146.661 280.45 127.54 299.559 127.54 323.131C127.54 346.703 146.661 365.811 170.247 365.811Z" fill="#A0616A"/>
<path d="M128.053 293.718C131.525 289.041 136.516 285.716 140.334 281.315C142.428 278.901 144.168 276.165 146.522 274.003C150.898 269.987 157.016 268.342 162.953 268.137C169.46 267.97 175.915 269.336 181.795 272.125C187.675 274.914 192.816 279.047 196.801 284.19C199.904 282.372 203.007 280.554 206.111 278.735C207.337 281.96 208.563 285.185 209.789 288.41C210.795 287.536 212.078 287.046 213.411 287.028C214.744 287.009 216.041 287.463 217.071 288.308C218.102 289.154 218.799 290.336 219.04 291.647C219.281 292.957 219.051 294.31 218.389 295.467C219.127 293.186 222.511 292.702 224.376 294.209C226.242 295.716 226.741 298.397 226.437 300.774C226.055 303.383 224.901 305.818 223.124 307.766C221.346 309.714 219.026 311.086 216.462 311.706C212.412 312.607 207.699 311.66 204.458 314.249C201.859 316.324 201.075 320.102 198.423 322.109C195.155 324.581 190.536 323.438 186.474 323.984C179.367 324.94 173.74 332.205 174.594 339.32C173.951 337.075 173.275 334.765 171.816 332.941C170.357 331.117 167.899 329.884 165.66 330.554C161.96 331.662 161.355 336.702 162.252 340.457C164.63 350.415 173.643 366.51 173.643 366.51C161.94 371.124 147.998 366.761 138.968 358.007C129.939 349.253 125.236 336.856 123.187 324.451C121.45 313.932 121.696 302.281 128.053 293.718Z" fill="#2F2E41"/>
<path d="M560.518 351.081C568.643 332.464 564.04 315.333 554.135 306.245V306.237C550.241 297.516 545.064 290.786 539.14 289.206C536.276 287.367 533.497 285.208 530.413 284.109C528.976 283.571 527.445 283.33 525.912 283.4C524.38 283.469 522.877 283.848 521.495 284.513L519.922 284.094C518.586 280.683 517.021 280.614 515.28 282.858C508.576 279.737 502.537 278.34 497.162 278.34C479.632 278.34 469.263 293.174 466.515 311.105L481.166 315.005L486.259 306.893L483.907 315.737L491.993 317.881C504.301 333.898 489.573 370.844 470.905 391.401C475.348 390.172 479.774 389.134 484.182 388.287L500.201 364.816L490.275 386.181C495.429 385.426 502.003 386.151 509.187 387.608C511.608 384.449 512.883 380.237 511.63 376.483C513.678 380.442 515.09 384.699 515.814 389.096C530.978 392.797 551.661 394.697 562.808 396.101C571.815 393.163 571.839 359.979 560.518 351.081Z" fill="#2F2E41"/>
<path d="M565.804 287.755C571.755 301.072 559.747 306.8 548.746 306.639C538.806 306.493 530.358 299.513 529.851 289.591C529.607 284.826 531.267 280.16 534.466 276.619C537.665 273.077 542.141 270.951 546.908 270.707C556.837 270.2 561.75 278.683 565.804 287.755Z" fill="#2F2E41"/>
<path d="M289.717 504.549L279.914 488.208L312.509 463.495L326.061 449.195C327.822 447.337 330.04 445.973 332.493 445.24C334.946 444.508 337.549 444.431 340.041 445.018C342.533 445.606 344.827 446.836 346.694 448.587C348.561 450.338 349.936 452.548 350.681 454.997C351.784 458.625 351.434 462.539 349.704 465.914C347.975 469.289 345.001 471.861 341.41 473.086L320.35 480.271L289.717 504.549Z" fill="#A0616A"/>
<path d="M296.802 504.01L281.54 516.723L277.424 520.149L276.944 520.546C275.882 521.072 274.813 521.591 273.737 522.102C270.515 523.636 267.252 525.093 263.949 526.474C255.256 530.108 246.338 533.174 237.249 535.654C235.523 536.127 233.79 536.577 232.049 537.004C230.988 537.264 229.919 537.523 228.85 537.767C228.178 537.928 227.499 538.08 226.819 538.225C225.995 538.408 225.17 538.592 224.345 538.759C223.483 538.943 222.62 539.118 221.757 539.286C219.435 537.078 217.587 534.422 216.325 531.479C215.062 528.535 214.411 525.366 214.412 522.163C214.412 521.957 214.412 521.744 214.42 521.53L216.871 458.708L217.955 430.865C218.122 424.568 220.746 418.587 225.267 414.198C229.789 409.809 235.848 407.362 242.15 407.379C242.883 407.379 243.609 407.417 244.326 407.485C244.846 408.157 245.327 408.851 245.792 409.553C247.06 411.43 248.77 414.399 250.786 418.122C251.618 419.656 252.496 421.319 253.42 423.082C253.977 424.143 258.787 439.144 263.468 454.466L261.406 470.467L257.68 499.31L272.966 489.284L283.731 482.218L285.006 484.347L288.327 489.886L294.741 500.569L296.802 504.01Z" fill="#47AE33"/>
<path d="M288.434 486.056C288.426 487.353 288.396 488.627 288.327 489.886C288.168 493.359 287.765 496.817 287.121 500.233C286.067 505.97 284.187 511.524 281.54 516.723C281.188 517.417 280.814 518.104 280.432 518.775C279.448 519.294 278.447 519.798 277.447 520.301C277.279 520.385 277.111 520.469 276.943 520.545C272.69 522.659 268.359 524.635 263.948 526.474C255.256 530.108 246.337 533.174 237.248 535.654C235.523 536.127 233.79 536.577 232.049 537.004C228.651 537.844 225.221 538.604 221.757 539.286C207.658 542.054 193.323 543.444 178.954 543.437C178 543.437 177.053 543.429 176.099 543.421C175.809 543.421 175.519 543.414 175.221 543.406C174.381 543.391 173.511 543.376 172.625 543.353C155.645 542.884 138.777 540.454 122.356 536.112C121.05 535.768 119.749 535.412 118.454 535.043C105.971 531.495 93.8289 526.843 82.172 521.141C69.3603 494.793 71.7654 480.722 69.4443 448.766C74.2086 436.87 154.812 445.271 216.87 458.708C233.713 462.356 249.182 466.377 261.406 470.467C274.034 474.687 283.189 478.975 286.777 483.004C287.616 483.838 288.192 484.899 288.434 486.056Z" fill="#2F2E41"/>
<path opacity="0.2" d="M69.4486 454.237C69.3301 452.258 69.1975 450.215 69.043 448.087C76.785 428.766 284.528 462.974 288.033 485.377C288.023 487.431 287.935 489.424 287.787 491.37C279.3 469.258 81.9417 436.747 69.4486 454.237Z" fill="black"/>
</g>
<defs>
<clipPath id="clip0_22_416">
<rect width="672.01" height="439.721" fill="white" transform="translate(10.2861 103.716)"/>
</clipPath>
</defs>
</svg>
