<svg width="808" height="808" viewBox="0 0 808 808" fill="none" xmlns="http://www.w3.org/2000/svg">
<rect x="295.5" width="591" height="591" rx="90" transform="rotate(30 295.5 0)" fill="#ED163E"/>
<g clip-path="url(#clip0_22_351)">
<path d="M643.697 127.773H201.178C184.945 127.773 171.745 140.599 171.745 156.371V451.012C171.745 466.785 184.945 479.61 201.178 479.61H643.697C659.93 479.61 673.13 466.785 673.13 451.012V156.371C673.13 140.599 659.93 127.773 643.697 127.773V127.773Z" fill="#F2F2F2"/>
<path d="M595.687 150.468H153.169C136.935 150.468 123.735 163.294 123.735 179.066V473.707C123.735 489.48 136.935 502.305 153.169 502.305H595.687C611.92 502.305 625.12 489.48 625.12 473.707V179.066C625.12 163.294 611.92 150.468 595.687 150.468ZM622.025 386.986C622.025 449.014 570.273 499.298 506.434 499.298H153.169C138.622 499.298 126.83 487.841 126.83 473.707V179.066C126.83 164.933 138.622 153.475 153.168 153.475H595.687C610.233 153.475 622.025 164.933 622.025 179.066V386.986Z" fill="#3F3D56"/>
<path d="M186.944 438.453L184.325 436.851C186.028 434.222 187.784 431.673 189.545 429.276L192.064 431.024C190.338 433.373 188.616 435.872 186.944 438.453H186.944Z" fill="#CCCCCC"/>
<path d="M204.009 417.022L201.794 414.922C206.516 410.22 211.487 406.183 216.566 402.924L218.272 405.433C213.377 408.574 208.578 412.473 204.009 417.022V417.022ZM281.222 398.041C277.526 398.041 274.159 397.581 271.639 397.18L272.139 394.213C274.693 394.619 277.769 395.034 281.222 395.034C284.272 395.034 287.269 394.708 290.385 394.038L291.053 396.975C287.715 397.692 284.499 398.041 281.222 398.041V398.041ZM234.911 397.643L233.981 394.775C237.305 393.756 240.749 392.993 244.217 392.504C247.195 392.086 250.042 391.883 252.92 391.883H253.11V394.89H252.92C250.191 394.89 247.49 395.083 244.66 395.481C241.358 395.946 238.077 396.673 234.911 397.643H234.911ZM308.682 388.953L306.704 386.64C310.975 383.193 314.036 379.025 317.277 374.612L318.57 372.857L321.082 374.614L319.796 376.359C316.436 380.935 313.26 385.258 308.682 388.953V388.953ZM333.502 361.38L331.598 359.009C335.77 355.846 340.483 353.283 346.007 351.174C346.948 350.814 347.847 350.493 348.71 350.208L349.709 353.053C348.888 353.326 348.034 353.63 347.14 353.972C341.896 355.974 337.436 358.397 333.502 361.38ZM370.866 350.935C369.825 350.935 368.838 350.926 367.889 350.915L367.925 347.908C368.895 347.919 369.908 347.921 370.979 347.928C374.621 347.928 379.693 347.827 386.651 347.045L387.008 350.031C379.82 350.84 374.668 350.925 370.866 350.935ZM405.834 346.997L405.221 344.05C410.78 342.958 417.247 341.657 423.649 340.053L424.422 342.964C417.948 344.588 411.433 345.897 405.834 346.997ZM442.654 337.263L441.496 334.474C447.702 332.044 453.09 329.302 457.97 326.092L459.705 328.583C454.642 331.913 449.064 334.753 442.654 337.263ZM473.925 315.776L471.413 314.018C472.277 312.854 473.023 311.718 473.745 310.62C475.876 307.378 478.08 304.025 483.327 299.909L483.695 299.623L485.612 301.983L485.272 302.248C480.416 306.057 478.443 309.06 476.353 312.239C475.609 313.371 474.838 314.543 473.925 315.776ZM501.689 293.222L500.561 290.422C506.076 288.321 512.306 286.63 519.077 285.396L519.649 288.352C513.068 289.551 507.025 291.19 501.689 293.222V293.222Z" fill="#CCCCCC"/>
<path d="M538.566 286.143L538.373 283.142C541.38 282.959 544.524 282.839 547.718 282.783L547.774 285.79C544.626 285.845 541.528 285.964 538.566 286.143Z" fill="#CCCCCC"/>
<path d="M221.456 183.053H178.034C175.852 183.053 174.072 184.782 174.072 186.902C174.072 189.037 175.852 190.766 178.034 190.766H221.456C223.638 190.766 225.418 189.037 225.418 186.902C225.418 184.782 223.638 183.053 221.456 183.053Z" fill="#E6E6E6"/>
<path d="M294.188 183.053H250.765C248.583 183.053 246.804 184.782 246.804 186.902C246.804 189.037 248.583 190.766 250.765 190.766H294.188C296.37 190.766 298.149 189.037 298.149 186.902C298.149 184.782 296.37 183.053 294.188 183.053Z" fill="#E6E6E6"/>
<path d="M366.92 183.053H323.498C321.316 183.053 319.536 184.782 319.536 186.902C319.536 189.037 321.316 190.766 323.498 190.766H366.92C369.102 190.766 370.882 189.037 370.882 186.902C370.882 184.782 369.102 183.053 366.92 183.053Z" fill="#E6E6E6"/>
<path d="M568.637 436.148H174.028V439.155H568.637V436.148Z" fill="#E6E6E6"/>
<path d="M547.793 216.626C519.706 217.333 498.753 225.362 485.476 240.458C480.57 246.051 478.574 250.457 476.469 255.118C474.38 259.719 472.245 264.455 467.277 270.635V265.523C470.357 261.132 472.013 257.463 473.637 253.9C475.835 249.028 477.924 244.427 483.124 238.518C496.989 222.731 518.716 214.356 547.7 213.619L547.793 216.626V216.626Z" fill="#CCCCCC"/>
<path d="M476.469 255.118C474.38 259.719 472.244 264.455 467.277 270.635C466.689 271.371 466.054 272.138 465.373 272.935C447.454 293.639 423.514 300.436 404.263 305.909C403.056 306.254 401.88 306.57 400.735 306.871C383.62 311.382 374.242 311.216 367.263 311.111C360.253 310.991 355.626 310.915 347.347 315.516C332.166 323.921 325.945 336.221 319.925 348.114C313.72 360.353 307.87 371.916 292.953 377.343C282.6 381.102 275.327 379.238 267.636 377.283C261.028 375.584 249.119 333.764 238.574 327.665C216.801 332.101 203.57 401.235 187.058 438.253L184.211 437.05C201.156 399.1 215.114 329.379 237.924 324.718C248.091 322.643 261.477 372.592 268.425 374.366C275.636 376.216 282.43 377.945 291.869 374.517C305.642 369.525 310.965 358.985 317.14 346.791C323.082 335.063 329.814 321.771 345.799 312.9C354.821 307.893 360.067 307.984 367.309 308.104C374.211 308.224 383.527 308.374 400.735 303.759C401.602 303.518 402.484 303.277 403.397 303.022C422.245 297.669 445.689 291.008 462.99 271.011C464.693 269.041 466.101 267.222 467.277 265.522C470.356 261.132 472.012 257.463 473.637 253.9C475.834 249.028 478.573 250.457 476.469 255.118V255.118Z" fill="#ED114C"/>
<path d="M311.446 599.106C310.221 594.962 308.123 591.427 305.626 588.905L296.552 548.714L276.773 553.422L288.108 593.684C287.362 597.091 287.511 601.158 288.736 605.302C291.535 614.77 298.887 621.059 305.158 619.348C311.43 617.637 314.245 608.574 311.446 599.106L311.446 599.106Z" fill="#FFB6B6"/>
<path d="M308.71 335.468C308.71 335.468 277.475 334.846 269.533 356.947C262.304 377.063 253.734 432.329 258.367 435.523L278.086 571.575L306.205 567.82L298.988 404.579L308.71 335.468Z" fill="#CF0026"/>
<path d="M453.35 588.01L447.81 730.85H374.305L371.333 666.842L358.273 730.85H279.49L289.317 620.818L299.468 597.678L306.339 581.996L453.35 588.01Z" fill="#2F2E41"/>
<path d="M394.545 308.344L343.478 305.337L326.456 326.387L289.316 339.919L306.339 500.802L298.601 597.031C298.601 597.031 406.925 681.231 453.35 588.009L440.97 475.241L444.065 344.43L408.473 329.394L394.545 308.344Z" fill="#CF0026"/>
<path d="M492.857 271.749C493.411 276.962 492.708 281.864 491.088 285.794L499.594 335.13L475.315 338.376L469.3 287.981C466.887 284.455 465.167 279.796 464.613 274.583C463.347 262.674 468.644 252.386 476.443 251.603C484.243 250.821 491.592 259.84 492.857 271.749V271.749H492.857Z" fill="#FFB6B6"/>
<path d="M450.567 350.079C442.197 336.179 421.435 334.868 412.136 348.199C409.594 351.844 410.302 355.94 409.695 360.862C407.119 381.756 448.327 443.498 476.841 450.607C480.583 451.54 482.714 455.462 486.491 456.25H486.491C497.679 458.587 508.095 449.959 507.491 438.856L499.746 296.455L467.206 307.239L469.289 381.17L450.567 350.079L450.567 350.079Z" fill="#CF0026"/>
<path d="M374.312 301.446C399.155 301.446 419.294 281.878 419.294 257.74C419.294 233.602 399.155 214.035 374.312 214.035C349.469 214.035 329.33 233.602 329.33 257.74C329.33 281.878 349.469 301.446 374.312 301.446Z" fill="#FFB6B6"/>
<path d="M416.21 225.647C415.823 225.738 422.132 219.764 422.4 219.633C428.59 216.626 422.23 246.021 417.758 245.194C406.755 243.164 402.004 239.134 397.733 249.193C396.542 251.99 395.799 255.148 393.478 257.147C390.29 259.869 384.998 259.643 382.398 262.891C380.309 265.507 380.912 269.356 382.46 272.303C384.007 275.265 386.359 277.776 387.768 280.799C389.346 284.197 382.614 295.007 380.046 301.082V301.097L380.03 301.132C379.348 302.726 377.726 298.136 376.013 297.678C373.964 297.129 370.945 301.831 367.681 300.977C367.666 300.977 367.65 300.962 367.635 300.962C364.524 300.12 361.058 299.217 357.623 298.315H357.607C347.935 295.759 345.49 299.428 345.026 299.323L339.022 293.218C336.961 291.76 337.194 287.054 335.741 285.79C334.553 284.757 331.59 287.145 330.717 286.152C326.436 281.28 325.452 276.407 322.928 266.785C320.622 257.989 315.84 231.662 325.667 230.474C334.936 229.346 328.158 216.806 337.49 217.272C336.933 214.987 337.97 212.536 339.656 210.852C341.328 209.153 343.556 208.101 345.8 207.198C356.864 202.808 355.023 199.034 366.691 201.59C367.851 200.011 384.703 201.064 386.808 201.59C386.963 201.62 381.593 202.868 389.903 201.59C389.594 203.44 394.855 204.252 394.546 206.101C395.706 204.582 408.179 213.303 408.473 215.122C408.86 217.393 405.331 216.235 407.684 216.581C409.076 216.791 411.46 219.543 411.227 220.911C412.233 219.588 413.239 218.28 414.26 216.957C414.446 216.972 414.616 217.002 414.802 217.032C419.506 217.904 414.113 232.846 414.307 228.188C414.663 219.633 420.899 224.64 416.21 225.647Z" fill="#2F2E41"/>
<path d="M588.538 458.268C588.885 459.097 590.081 459.097 590.427 458.268C592.843 452.48 596.284 445.998 600.025 441.045C600.625 440.252 599.799 439.192 598.847 439.526L590.825 442.346V394.102H588.14V442.346L580.116 439.526C579.164 439.191 578.338 440.251 578.938 441.044C582.68 445.998 586.12 452.48 588.538 458.268Z" fill="#3F3D56"/>
<path d="M641.138 507.942C640.878 508.801 641.815 509.524 642.617 509.084C648.214 506.012 655.057 503.014 661.158 501.396C662.134 501.137 662.166 499.808 661.206 499.495L653.12 496.856L684 459.077L681.897 457.454L651.018 495.234L646.539 488.177C646.008 487.34 644.683 487.671 644.644 488.654C644.404 494.794 642.949 501.949 641.138 507.942Z" fill="#3F3D56"/>
<path d="M616.018 540.137H563.834C560.594 540.137 557.959 537.576 557.959 534.428C551.059 514.834 551.195 495.635 557.959 476.807C557.959 473.659 560.594 471.098 563.834 471.098H616.018C619.258 471.098 621.893 473.659 621.893 476.807V534.428C621.893 537.576 619.258 540.137 616.018 540.137Z" fill="#E6E6E6"/>
<path d="M575.015 472.799C566.562 472.799 559.709 479.457 559.709 487.67V533.206C559.709 536.095 562.119 538.437 565.092 538.437H593.95C608.416 538.437 620.142 527.042 620.142 512.987V478.029C620.142 475.141 617.732 472.799 614.759 472.799H575.015Z" fill="white"/>
<path d="M602.079 489.544H577.647C577.031 489.544 576.53 489.057 576.53 488.458C576.53 487.86 577.031 487.373 577.647 487.373H602.079C602.695 487.373 603.196 487.86 603.196 488.458C603.196 489.057 602.695 489.544 602.079 489.544Z" fill="#E6E6E6"/>
<path d="M602.079 512.688H577.647C577.031 512.688 576.53 512.201 576.53 511.602C576.53 511.004 577.031 510.517 577.647 510.517H602.079C602.695 510.517 603.196 511.004 603.196 511.602C603.196 512.201 602.695 512.688 602.079 512.688Z" fill="#E6E6E6"/>
<path d="M615.189 501.123H564.537C563.921 501.123 563.42 500.636 563.42 500.038C563.42 499.439 563.921 498.953 564.537 498.953H615.189C615.805 498.953 616.306 499.439 616.306 500.038C616.306 500.636 615.805 501.123 615.189 501.123Z" fill="#E6E6E6"/>
<path d="M615.787 522.098H594.651C594.035 522.098 593.534 521.611 593.534 521.012C593.534 520.414 594.035 519.927 594.651 519.927H615.787C616.403 519.927 616.903 520.414 616.903 521.012C616.903 521.611 616.403 522.098 615.787 522.098Z" fill="#E6E6E6"/>
<path d="M142.287 109.172C152.939 109.172 161.573 100.959 161.573 90.8276C161.573 80.6961 152.939 72.4829 142.287 72.4829C131.635 72.4829 123 80.6961 123 90.8276C123 100.959 131.635 109.172 142.287 109.172Z" fill="#ED114C"/>
<path d="M296.9 84.5516H193.087C189.526 84.5516 186.628 81.7362 186.628 78.2758C186.628 74.8154 189.526 72 193.087 72H296.9C300.461 72 303.359 74.8154 303.359 78.2758C303.359 81.7362 300.461 84.5516 296.9 84.5516Z" fill="#F2F2F2"/>
<path d="M377.916 105.793H193.087C189.526 105.793 186.628 102.977 186.628 99.517C186.628 96.0566 189.526 93.2412 193.087 93.2412H377.916C381.477 93.2412 384.375 96.0566 384.375 99.517C384.375 102.977 381.477 105.793 377.916 105.793Z" fill="#F2F2F2"/>
</g>
<defs>
<clipPath id="clip0_22_351">
<rect width="561" height="658.849" fill="white" transform="translate(123 72)"/>
</clipPath>
</defs>
</svg>
