<svg width="803" height="259" viewBox="0 0 803 259" fill="none" xmlns="http://www.w3.org/2000/svg">
<g clip-path="url(#clip0_22_617)">
<path d="M781.257 232H751.744C751.078 231.998 750.42 232.142 749.816 232.422C749.212 232.701 748.676 233.109 748.246 233.617C747.157 233.417 746.037 233.478 744.976 233.795C743.916 234.112 742.946 234.676 742.145 235.441C741.345 236.205 740.738 237.149 740.373 238.194C740.008 239.239 739.896 240.355 740.046 241.452C740.197 242.548 740.605 243.593 741.237 244.501C741.87 245.41 742.709 246.155 743.685 246.676C744.662 247.197 745.748 247.479 746.855 247.499C747.961 247.519 749.057 247.276 750.051 246.79L752.499 254.745C752.789 255.687 753.374 256.512 754.167 257.098C754.96 257.684 755.92 258 756.907 258H776.095C777.081 258 778.041 257.684 778.834 257.098C779.627 256.512 780.212 255.687 780.502 254.745L785.665 237.968C785.877 237.278 785.924 236.548 785.803 235.837C785.681 235.125 785.395 234.452 784.966 233.872C784.537 233.291 783.979 232.82 783.334 232.495C782.69 232.169 781.978 232 781.257 232V232ZM747 245.5C745.674 245.5 744.403 244.973 743.465 244.036C742.527 243.098 742 241.826 742 240.5C742 239.174 742.527 237.902 743.465 236.964C744.403 236.027 745.674 235.5 747 235.5C747.092 235.5 747.177 235.522 747.267 235.527C747.068 236.332 747.092 237.176 747.337 237.968L749.449 244.832C748.705 245.265 747.861 245.495 747 245.5V245.5Z" fill="#F0F0F0"/>
<path d="M62.2568 211H32.7441C32.0783 210.998 31.4203 211.142 30.816 211.422C30.2117 211.701 29.6757 212.109 29.2456 212.617C28.157 212.417 27.0365 212.478 25.9761 212.795C24.9157 213.112 23.9456 213.676 23.1453 214.441C22.3451 215.205 21.7376 216.149 21.3727 217.194C21.0079 218.239 20.896 219.355 21.0463 220.452C21.1966 221.548 21.6048 222.593 22.2374 223.501C22.87 224.41 23.7089 225.155 24.6854 225.676C25.6618 226.197 26.7479 226.479 27.8545 226.499C28.9611 226.519 30.0567 226.276 31.0512 225.79L34.499 254.745C34.7889 255.687 35.3735 256.512 36.1668 257.098C36.9602 257.684 37.9204 258 38.9067 258H58.0947C59.0808 258 60.041 257.684 60.8343 257.098C61.6275 256.512 62.212 255.687 62.5019 254.745L66.6645 216.968C66.8767 216.278 66.924 215.548 66.8027 214.837C66.6815 214.125 66.3949 213.452 65.9662 212.872C65.5375 212.291 64.9785 211.82 64.3342 211.495C63.69 211.169 62.9784 211 62.2568 211V211ZM28.0004 224.5C26.6744 224.5 25.4026 223.973 24.4649 223.036C23.5272 222.098 23.0004 220.826 23.0004 219.5C23.0004 218.174 23.5272 216.902 24.4649 215.964C25.4026 215.027 26.6744 214.5 28.0004 214.5C28.0917 214.5 28.1767 214.522 28.267 214.527C28.0682 215.332 28.0923 216.176 28.3369 216.968L30.4487 223.832C29.7047 224.265 28.8607 224.495 28.0004 224.5V224.5Z" fill="#ED163E"/>
<path d="M410.914 187C410.914 185.418 410.445 183.871 409.566 182.555C408.687 181.24 407.437 180.214 405.976 179.609C404.514 179.003 402.905 178.845 401.353 179.154C399.802 179.462 398.376 180.224 397.257 181.343C396.138 182.462 395.376 183.887 395.068 185.439C394.759 186.991 394.918 188.6 395.523 190.061C396.129 191.523 397.154 192.773 398.47 193.652C399.785 194.531 401.332 195 402.914 195C403.014 195 403.11 194.989 403.209 194.985C405.187 201.415 406.244 208.093 406.348 214.82C406.424 218.173 406.233 221.528 405.775 224.851C405.427 227.208 404.777 229.914 402.436 231.015C400.69 231.836 402.211 234.424 403.95 233.605C406.59 232.363 407.874 229.579 408.45 226.858C409.107 223.35 409.409 219.784 409.353 216.215C409.385 208.796 408.301 201.415 406.139 194.318C407.559 193.693 408.766 192.668 409.614 191.369C410.462 190.069 410.914 188.552 410.914 187V187Z" fill="#23850F"/>
<path d="M408.47 235.207C408.47 235.207 397.743 208.803 429.924 189L408.47 235.207Z" fill="#47AE33"/>
<path d="M407.895 234.727C407.895 234.727 404.623 215.907 379.296 216.068L407.895 234.727Z" fill="#47AE33"/>
<path d="M425.84 257.84H381.86C381.016 257.84 380.19 257.603 379.474 257.155C378.759 256.708 378.184 256.068 377.815 255.309L368.239 235.626C367.906 234.941 367.752 234.181 367.792 233.42C367.833 232.658 368.066 231.919 368.471 231.273C368.875 230.626 369.438 230.093 370.105 229.724C370.772 229.354 371.522 229.16 372.285 229.16H435.416C436.178 229.16 436.928 229.354 437.595 229.724C438.263 230.093 438.825 230.626 439.229 231.273C439.634 231.919 439.867 232.658 439.908 233.42C439.948 234.181 439.794 234.941 439.461 235.626L429.885 255.309C429.516 256.068 428.941 256.708 428.226 257.155C427.511 257.603 426.684 257.84 425.84 257.84Z" fill="#ED163E"/>
<path d="M802 259H1C0.734784 259 0.480429 258.895 0.292892 258.707C0.105356 258.52 0 258.265 0 258C0 257.735 0.105356 257.48 0.292892 257.293C0.480429 257.105 0.734784 257 1 257H802C802.265 257 802.52 257.105 802.707 257.293C802.895 257.48 803 257.735 803 258C803 258.265 802.895 258.52 802.707 258.707C802.52 258.895 802.265 259 802 259Z" fill="#1476C6"/>
<path d="M167.075 200.927L147.64 127.442L145.39 118.959L147.5 117L183.722 99.0552L235.482 100.344L265.869 115.944L266.033 127.442L267.533 231.033L273.595 256.46H162.419L171.051 215.964L167.075 200.927Z" fill="#A2D3FB"/>
<path d="M294.929 256.46H265.955L257.956 198.7L260.05 127.442L260.338 117.748L265.869 115.943C270.038 118.988 273.484 122.914 275.962 127.442C279.516 133.629 282.469 142.495 281.735 154.416C281.735 154.416 282.391 168.492 281.766 177.866C281.337 184.272 288.812 224.76 294.929 256.46Z" fill="#A2D3FB"/>
<path d="M167.176 200.192L167.075 200.927L159.388 256.46H126.071C128.743 224.995 131.883 185.655 131.461 179.351C130.836 169.985 131.493 155.9 131.493 155.9C130.696 142.988 134.235 133.676 138.164 127.442C140.141 124.273 142.576 121.415 145.39 118.959C146.014 118.411 146.671 117.902 147.358 117.436L152.889 119.232L154.334 127.442L167.176 200.192Z" fill="#A2D3FB"/>
<path d="M171.017 50.7663C171.017 57.8626 173.121 64.7996 177.063 70.6999C181.006 76.6003 186.61 81.199 193.166 83.9147C199.722 86.6303 206.936 87.3408 213.896 85.9564C220.856 84.572 227.249 81.1548 232.267 76.137C237.285 71.1191 240.702 64.726 242.086 57.7661C243.471 50.8062 242.76 43.592 240.045 37.0358C237.329 30.4797 232.73 24.8761 226.83 20.9336C220.929 16.9911 213.993 14.8868 206.896 14.8868V14.8868C197.404 14.8631 188.291 18.6111 181.563 25.3063C174.834 32.0015 171.04 41.0954 171.017 50.5875C171.017 50.6471 171.017 50.7067 171.017 50.7663Z" fill="#FFB7B7"/>
<path d="M321.5 250.738C321.5 252.786 320.686 254.75 319.238 256.198C317.79 257.647 315.826 258.46 313.778 258.46H107.222C105.174 258.46 103.21 257.646 101.762 256.198C100.314 254.75 99.5 252.786 99.5 250.738V250.738C99.5 248.69 100.314 246.726 101.762 245.278C103.21 243.83 105.174 243.016 107.222 243.016H109.514C109.383 242.556 109.315 242.081 109.312 241.602V136.149C109.312 134.37 110.018 132.664 111.276 131.407C112.533 130.149 114.239 129.442 116.018 129.442H304.982C306.761 129.442 308.467 130.149 309.724 131.407C310.982 132.664 311.688 134.37 311.688 136.148V241.602C311.689 242.081 311.621 242.557 311.486 243.016H313.778C314.792 243.016 315.796 243.216 316.733 243.604C317.67 243.992 318.521 244.561 319.238 245.278C319.955 245.995 320.524 246.846 320.912 247.783C321.3 248.72 321.5 249.724 321.5 250.738V250.738Z" fill="#1476C6"/>
<path d="M214.501 189.671C212.14 189.671 209.832 188.971 207.869 187.659C205.906 186.348 204.377 184.484 203.473 182.303C202.57 180.121 202.333 177.721 202.794 175.406C203.254 173.091 204.391 170.964 206.06 169.295C207.73 167.625 209.857 166.488 212.172 166.028C214.487 165.567 216.887 165.803 219.068 166.707C221.249 167.61 223.114 169.14 224.425 171.103C225.737 173.066 226.437 175.374 226.437 177.734C226.433 180.899 225.175 183.933 222.937 186.171C220.699 188.409 217.665 189.667 214.501 189.671V189.671ZM214.501 167.798C212.536 167.798 210.614 168.381 208.98 169.473C207.346 170.565 206.073 172.117 205.321 173.932C204.569 175.748 204.372 177.746 204.755 179.673C205.139 181.601 206.085 183.371 207.475 184.761C208.864 186.15 210.635 187.097 212.562 187.48C214.49 187.863 216.488 187.667 218.303 186.914C220.119 186.162 221.671 184.889 222.763 183.255C223.854 181.621 224.437 179.7 224.437 177.734C224.434 175.1 223.386 172.575 221.523 170.712C219.661 168.849 217.135 167.801 214.501 167.798V167.798Z" fill="white"/>
<path d="M210.501 184.671C216.541 184.671 221.437 179.775 221.437 173.735C221.437 167.695 216.541 162.798 210.501 162.798C204.461 162.798 199.564 167.695 199.564 173.735C199.564 179.775 204.461 184.671 210.501 184.671Z" fill="white"/>
<path d="M546 81.6812V60.5C546 47.7696 551.057 35.5606 560.059 26.5589C569.061 17.5571 581.27 12.5 594 12.5C606.73 12.5 618.939 17.5571 627.941 26.5589C636.943 35.5606 642 47.7696 642 60.5V81.6812C641.997 84.5495 640.856 87.2994 638.828 89.3276C636.799 91.3559 634.049 92.4967 631.181 92.5H566.3L561 81.2368V92.5H556.819C553.951 92.4967 551.201 91.3559 549.172 89.3276C547.144 87.2994 546.003 84.5495 546 81.6812V81.6812Z" fill="#2F2E41"/>
<path d="M629.007 149.476L631.075 171.879L632.014 182.058L633.513 198.265L633.703 200.355L634.922 213.518L634.952 213.662C635.721 216.125 637.264 218.273 639.352 219.789C641.439 221.305 643.96 222.107 646.54 222.076L702.22 221.115L717.935 220.842C718.238 221.296 718.534 221.705 718.829 222.069C720.209 223.745 721.927 225.112 723.87 226.081C725.812 227.051 727.937 227.601 730.106 227.696C732.286 227.796 734.463 227.43 736.49 226.621C738.516 225.813 740.348 224.581 741.86 223.008C742.163 222.697 742.458 222.372 742.731 222.031C744.79 219.498 745.995 216.379 746.175 213.12C746.354 209.861 745.499 206.628 743.731 203.885C742.554 202.048 740.997 200.484 739.166 199.298C737.334 198.112 735.271 197.331 733.113 197.008C730.968 196.679 728.778 196.805 726.685 197.378C724.592 197.951 722.643 198.957 720.965 200.333C720.432 200.772 719.934 201.25 719.473 201.764L702.22 199.25L658.771 192.926L656.916 167.857C656.908 167.744 656.9 167.63 656.893 167.509L655.393 147.28C655.143 143.914 653.617 140.77 651.127 138.491C648.637 136.213 645.371 134.97 641.995 135.018C640.885 135.03 639.78 135.185 638.709 135.48C637.509 135.806 636.361 136.3 635.301 136.95C633.182 138.237 631.469 140.095 630.356 142.31C629.243 144.525 628.775 147.008 629.007 149.476V149.476Z" fill="#FFB7B7"/>
<path d="M595.942 93.6617C613.324 93.6617 627.414 79.5713 627.414 62.19C627.414 44.8086 613.324 30.7183 595.942 30.7183C578.561 30.7183 564.471 44.8086 564.471 62.19C564.471 79.5713 578.561 93.6617 595.942 93.6617Z" fill="#FFB7B7"/>
<path d="M637.904 114.643L643.626 112.736C643.626 112.736 655.071 117.504 655.071 126.087C655.071 134.671 656.978 169.003 656.978 169.003L631.229 171.865L637.904 114.643Z" fill="#A2D3FB"/>
<path d="M516.168 257.46H538.859L546.622 192.411L549.431 168.918L549.817 165.676L551.893 148.287C552.004 146.104 551.517 143.932 550.484 142.005C549.451 140.078 547.91 138.47 546.03 137.356C544.149 136.241 542 135.661 539.813 135.679C537.627 135.697 535.487 136.312 533.625 137.457C533.156 137.746 532.708 138.067 532.285 138.419C530.982 139.49 529.922 140.824 529.172 142.335C528.423 143.845 528.002 145.497 527.937 147.182L525.893 166.305L516.168 257.46Z" fill="#9E616A"/>
<path d="M550.201 169.003L524.451 166.142C524.451 166.142 526.359 131.809 526.359 123.226C526.359 114.643 537.803 109.875 537.803 109.875L543.525 111.782L550.201 169.003Z" fill="#A2D3FB"/>
<path d="M541.851 257.46H649.493C646.083 244.425 641.429 231.746 635.596 219.6C634.649 217.669 634.089 216.639 634.089 216.639C634.089 216.639 588.314 215.738 559.702 227.181C557.877 227.969 556.24 229.136 554.9 230.604C549.947 235.724 545.615 245.335 541.851 257.46Z" fill="#2F2E41"/>
<path d="M564.47 104.152C564.47 104.152 563.562 103.665 617.874 105.643L640.605 111.903L643.626 112.735C643.626 112.735 640.765 169.957 633.136 180.447C625.506 190.938 627.414 196.66 629.321 197.614C631.229 198.567 635.997 196.66 633.136 201.428C630.275 206.197 626.46 203.336 630.275 206.197C634.09 209.058 635.997 219.549 635.997 219.549L552.072 230.993C552.072 230.993 549.211 193.799 541.582 174.725C533.952 155.651 532.045 148.022 532.045 148.022L537.767 109.874L564.47 104.152Z" fill="#A2D3FB"/>
<path d="M562 44.5C562 36.2783 565.266 28.3933 571.08 22.5797C576.893 16.7661 584.778 13.5 593 13.5C601.222 13.5 609.107 16.7661 614.92 22.5797C620.734 28.3933 624 36.2783 624 44.5V58.5H562V44.5Z" fill="#2F2E41"/>
<path d="M698.5 249.592V252.356C698.5 253.975 697.856 255.527 696.712 256.672C695.567 257.817 694.015 258.46 692.396 258.46H489.372C487.753 258.46 486.201 257.817 485.056 256.672C483.911 255.527 483.268 253.975 483.268 252.356V249.592C483.268 247.973 483.911 246.42 485.056 245.276C486.201 244.131 487.753 243.488 489.372 243.487H492.977C492.849 243.041 492.783 242.58 492.78 242.116V138.495C492.781 137.138 493.32 135.836 494.28 134.876C495.24 133.916 496.542 133.376 497.9 133.375H683.868C685.226 133.376 686.527 133.916 687.487 134.876C688.447 135.836 688.987 137.138 688.988 138.495V242.116C688.988 242.58 688.922 243.042 688.791 243.487H692.396C694.015 243.488 695.567 244.131 696.712 245.276C697.856 246.42 698.5 247.973 698.5 249.592Z" fill="#1476C6"/>
<path d="M594.884 191.92C592.589 191.92 590.346 191.24 588.438 189.965C586.53 188.69 585.043 186.878 584.164 184.758C583.286 182.637 583.056 180.304 583.504 178.054C583.952 175.803 585.057 173.736 586.68 172.113C588.302 170.49 590.37 169.385 592.621 168.937C594.871 168.49 597.204 168.719 599.325 169.598C601.445 170.476 603.257 171.963 604.532 173.871C605.807 175.779 606.487 178.023 606.487 180.317C606.484 183.394 605.26 186.343 603.085 188.518C600.91 190.693 597.96 191.917 594.884 191.92V191.92ZM594.884 170.714C592.985 170.714 591.128 171.278 589.549 172.333C587.97 173.388 586.739 174.888 586.012 176.642C585.285 178.397 585.095 180.328 585.466 182.191C585.836 184.054 586.751 185.765 588.094 187.108C589.437 188.451 591.148 189.365 593.011 189.736C594.874 190.106 596.804 189.916 598.559 189.189C600.314 188.463 601.814 187.232 602.869 185.653C603.924 184.073 604.487 182.217 604.487 180.317C604.484 177.771 603.472 175.33 601.671 173.53C599.871 171.73 597.43 170.717 594.884 170.714V170.714Z" fill="white"/>
<path d="M590.884 186.92C596.74 186.92 601.487 182.173 601.487 176.317C601.487 170.461 596.74 165.714 590.884 165.714C585.028 165.714 580.281 170.461 580.281 176.317C580.281 182.173 585.028 186.92 590.884 186.92Z" fill="white"/>
<path d="M247.538 20.9623C244.646 18.7289 242.295 15.8718 240.66 12.6036C240.076 11.3615 239.271 10.2361 238.284 9.28248L231.5 14.5L235.646 7.27876C225.027 0.860176 204.292 4.26917 204.292 4.26917C182.722 -7.21692 174.801 7.12097 172.04 16.2138C170.946 19.5043 169.017 22.4548 166.442 24.7767C161.121 29.8502 169.5 39.7187 169.5 39.7187V40.4161L171.5 54C171.5 54 173.5 45 178.778 38.6756C182.105 34.6882 187.521 32.3174 190.037 32.3665C222.5 33 228.646 34.2855 228.646 34.2855C228.646 34.2855 234.142 37.2381 236.569 38.4784C244.413 42.4865 242.5 57 242.5 57L248.361 31.241C249.714 24.9969 248.963 22.132 247.538 20.9623Z" fill="#2F2E41"/>
</g>
<defs>
<clipPath id="clip0_22_617">
<rect width="803" height="259" fill="white"/>
</clipPath>
</defs>
</svg>
